<?xml version="1.0" encoding="UTF-8" standalone="no"?>
<!-- Created with Inkscape (http://www.inkscape.org/) -->

<svg
   xmlns:dc="http://purl.org/dc/elements/1.1/"
   xmlns:cc="http://creativecommons.org/ns#"
   xmlns:rdf="http://www.w3.org/1999/02/22-rdf-syntax-ns#"
   xmlns:svg="http://www.w3.org/2000/svg"
   xmlns="http://www.w3.org/2000/svg"
   xmlns:sodipodi="http://sodipodi.sourceforge.net/DTD/sodipodi-0.dtd"
   xmlns:inkscape="http://www.inkscape.org/namespaces/inkscape"
   width="210mm"
   height="297mm"
   viewBox="0 0 744.09448819 1052.3622047"
   id="svg4246"
   version="1.1"
   inkscape:version="0.91 r13725"
   sodipodi:docname="target.svg">
  <defs
     id="defs4248" />
  <sodipodi:namedview
     id="base"
     pagecolor="#ffffff"
     bordercolor="#666666"
     borderopacity="1.0"
     inkscape:pageopacity="0.0"
     inkscape:pageshadow="2"
     inkscape:zoom="1.979899"
     inkscape:cx="316.9135"
     inkscape:cy="743.12849"
     inkscape:document-units="px"
     inkscape:current-layer="layer1"
     showgrid="false"
     inkscape:window-width="1680"
     inkscape:window-height="1001"
     inkscape:window-x="0"
     inkscape:window-y="1"
     inkscape:window-maximized="1"
     showguides="false" />
  <metadata
     id="metadata4251">
    <rdf:RDF>
      <cc:Work
         rdf:about="">
        <dc:format>image/svg+xml</dc:format>
        <dc:type
           rdf:resource="http://purl.org/dc/dcmitype/StillImage" />
        <dc:title></dc:title>
      </cc:Work>
    </rdf:RDF>
  </metadata>
  <g
     inkscape:label="Layer 1"
     inkscape:groupmode="layer"
     id="layer1">
    <path
       style="fill:none;stroke:#000000;stroke-width:19.39953804;stroke-miterlimit:4;stroke-dasharray:none;stroke-opacity:1"
       d="m 253.49571,190.99301 c -43.21402,0.24542 -84.90914,28.46546 -100.7914,68.73179 -14.52372,35.09968 -9.61327,77.70731 13.48529,108.03458 21.56166,29.09027 57.91092,46.90044 94.21701,44.72151 36.59011,-1.70385 71.99829,-22.481 90.25316,-54.41927 18.21158,-30.84913 20.59328,-70.73701 4.94899,-103.12976 -14.60073,-31.38785 -44.53113,-55.38522 -78.68775,-61.73993 -7.70419,-1.54163 -15.56879,-2.27501 -23.4253,-2.19892 z"
       id="path4256"
       inkscape:connector-curvature="0" />
    <path
       style="fill:none;stroke:#000000;stroke-width:12.12471104;stroke-miterlimit:4;stroke-dasharray:none;stroke-opacity:1"
       d="m 255.27084,214.0148 c -41.48023,-0.41695 -80.37898,32.58189 -86.80715,73.54085 -6.30004,38.55854 16.12283,80.28813 52.56336,95.02769 33.19322,13.98211 75.1569,5.64572 99.03711,-21.7667 22.86429,-25.36706 29.94331,-64.74741 14.80635,-95.75869 -14.11952,-30.08339 -46.12169,-51.42781 -79.59967,-51.04315 z"
       id="path4810"
       inkscape:connector-curvature="0" />
    <path
       style="fill:none;fill-rule:evenodd;stroke:#000000;stroke-width:12.12471104;stroke-linecap:butt;stroke-linejoin:miter;stroke-miterlimit:4;stroke-dasharray:none;stroke-opacity:1"
       d="m 254.93944,257.44795 1.38569,-106.69746"
       id="path4896"
       inkscape:connector-curvature="0" />
    <path
       style="fill:none;fill-rule:evenodd;stroke:#000000;stroke-width:12.12471104;stroke-linecap:butt;stroke-linejoin:miter;stroke-miterlimit:4;stroke-dasharray:none;stroke-opacity:1"
       d="m 103.62009,302.76978 106.70337,0.81131"
       id="path4920"
       inkscape:connector-curvature="0" />
    <path
       inkscape:connector-curvature="0"
       id="path4922"
       d="m 254.93944,455.32324 1.38569,-106.69747"
       style="fill:none;fill-rule:evenodd;stroke:#000000;stroke-width:12.12471104;stroke-linecap:butt;stroke-linejoin:miter;stroke-miterlimit:4;stroke-dasharray:none;stroke-opacity:1" />
    <path
       inkscape:connector-curvature="0"
       id="path4998"
       d="m 295.62559,302.76886 96.59085,0.81315"
       style="fill:none;fill-rule:evenodd;stroke:#000000;stroke-width:11.54909801;stroke-linecap:butt;stroke-linejoin:miter;stroke-miterlimit:4;stroke-dasharray:none;stroke-opacity:1" />
    <g
       style="font-style:normal;font-weight:normal;font-size:180px;line-height:125%;font-family:sans-serif;letter-spacing:0px;word-spacing:0px;fill:#000000;fill-opacity:1;stroke:none;stroke-width:1px;stroke-linecap:butt;stroke-linejoin:miter;stroke-opacity:1"
       id="text5006"
       transform="matrix(1.1050052,0,0,0.99195159,-36.067744,-2.5917251)">
      <path
         d="m 480.21344,206.91615 0,33.65014 q -8.96484,-15.00826 -19.16016,-22.43342 -10.10742,-7.42514 -21.5332,-7.42514 -22.5,0 -34.45312,24.80314 -11.95313,24.64519 -11.95313,71.40785 0,46.60466 11.95313,71.40783 11.95312,24.64518 34.45312,24.64518 11.42578,0 21.5332,-7.42515 10.19532,-7.42515 19.16016,-22.43343 l 0,33.33418 q -9.31641,11.37471 -19.77539,17.06205 -10.37109,5.68735 -21.97266,5.68735 -29.79492,0 -46.93359,-32.70226 -17.13867,-32.86024 -17.13867,-89.57575 0,-56.87351 17.13867,-89.57577 17.13867,-32.86024 46.93359,-32.86024 11.77735,0 22.14844,5.68737 10.45898,5.52936 19.59961,16.74607 z"
         id="path5011"
         inkscape:connector-curvature="0" />
    </g>
    <path
       style="fill:#000000;fill-opacity:1;stroke:#000000;stroke-width:9.9041338;stroke-linecap:round;stroke-linejoin:miter;stroke-miterlimit:4;stroke-dasharray:none;stroke-opacity:1"
       d="m 256.93777,185.72856 181.12442,0 -45.71429,42.19587 -42.19584,-0.71429 z"
       id="rect5017"
       inkscape:connector-curvature="0"
       sodipodi:nodetypes="ccccc" />
    <path
       style="fill:#000000;fill-opacity:1;stroke:#000000;stroke-width:26.5265274;stroke-linecap:round;stroke-linejoin:miter;stroke-miterlimit:4;stroke-dasharray:none;stroke-opacity:1"
       d="m 349.09034,229.87161 28.38447,0 6.4978,38.03418 -8.74212,14.32824 z"
       id="rect5020"
       inkscape:connector-curvature="0"
       sodipodi:nodetypes="ccccc" />
    <rect
       style="fill:#000000;fill-opacity:1;stroke:#000000;stroke-width:16.3884697;stroke-linecap:round;stroke-linejoin:miter;stroke-miterlimit:4;stroke-dasharray:none;stroke-opacity:1"
       id="rect5025"
       width="178.62123"
       height="1.0686734"
       x="258.65387"
       y="413.4707" />
    <path
       style="fill:#000000;fill-opacity:1;stroke:#000000;stroke-width:26.09024239;stroke-linecap:round;stroke-linejoin:miter;stroke-miterlimit:4;stroke-dasharray:none;stroke-opacity:1"
       d="m 364.5846,346.37217 16.63862,-28.33479 13.41826,76.45047 -59.57702,0 z"
       id="rect5027"
       inkscape:connector-curvature="0"
       sodipodi:nodetypes="ccccc" />
  </g>
</svg>
