<?xml version="1.0" encoding="UTF-8" standalone="no"?>
<!-- Created with Inkscape (http://www.inkscape.org/) -->

<svg
   xmlns:dc="http://purl.org/dc/elements/1.1/"
   xmlns:cc="http://creativecommons.org/ns#"
   xmlns:rdf="http://www.w3.org/1999/02/22-rdf-syntax-ns#"
   xmlns:svg="http://www.w3.org/2000/svg"
   xmlns="http://www.w3.org/2000/svg"
   xmlns:xlink="http://www.w3.org/1999/xlink"
   xmlns:sodipodi="http://sodipodi.sourceforge.net/DTD/sodipodi-0.dtd"
   xmlns:inkscape="http://www.inkscape.org/namespaces/inkscape"
   width="262pt"
   height="190pt"
   viewBox="0 0 327.5 237.5"
   id="svg2"
   version="1.1"
   inkscape:version="0.91 r13725"
   sodipodi:docname="logo.svg">
  <defs
     id="defs4">
    <linearGradient
       inkscape:collect="always"
       id="linearGradient4440">
      <stop
         style="stop-color:#5300b7;stop-opacity:1;"
         offset="0"
         id="stop4442" />
      <stop
         style="stop-color:#5300b7;stop-opacity:0;"
         offset="1"
         id="stop4444" />
    </linearGradient>
    <linearGradient
       inkscape:collect="always"
       id="linearGradient4153">
      <stop
         style="stop-color:#5300b7;stop-opacity:1;"
         offset="0"
         id="stop4155" />
      <stop
         style="stop-color:#5300b7;stop-opacity:0;"
         offset="1"
         id="stop4157" />
    </linearGradient>
    <linearGradient
       inkscape:collect="always"
       xlink:href="#linearGradient4153"
       id="linearGradient4159"
       x1="-56.221268"
       y1="738.20477"
       x2="671.46735"
       y2="738.20477"
       gradientUnits="userSpaceOnUse"
       gradientTransform="matrix(0.47694419,0,0,0.47694419,-10.910155,554.28314)" />
    <filter
       inkscape:collect="always"
       style="color-interpolation-filters:sRGB"
       id="filter4273"
       x="-0.01645783"
       width="1.0329157"
       y="-0.0094423965"
       height="1.0188848">
      <feGaussianBlur
         inkscape:collect="always"
         stdDeviation="1.7248354"
         id="feGaussianBlur4275" />
    </filter>
    <filter
       inkscape:collect="always"
       style="color-interpolation-filters:sRGB"
       id="filter4380"
       x="-0.17142858"
       width="1.3428572"
       y="-0.066666663"
       height="1.1333333">
      <feGaussianBlur
         inkscape:collect="always"
         stdDeviation="0.96252165"
         id="feGaussianBlur4382" />
    </filter>
    <linearGradient
       inkscape:collect="always"
       xlink:href="#linearGradient4440"
       id="linearGradient4446"
       x1="189.46915"
       y1="822.52728"
       x2="489.37381"
       y2="817.69861"
       gradientUnits="userSpaceOnUse"
       gradientTransform="translate(-212.54265,123.4533)" />
  </defs>
  <sodipodi:namedview
     id="base"
     pagecolor="#ffffff"
     bordercolor="#666666"
     borderopacity="1.0"
     inkscape:pageopacity="0"
     inkscape:pageshadow="2"
     inkscape:zoom="1.0389377"
     inkscape:cx="222.9681"
     inkscape:cy="32.061561"
     inkscape:document-units="px"
     inkscape:current-layer="layer1"
     showgrid="false"
     units="pt"
     inkscape:snap-nodes="false"
     inkscape:window-width="1680"
     inkscape:window-height="1001"
     inkscape:window-x="0"
     inkscape:window-y="1"
     inkscape:window-maximized="1" />
  <metadata
     id="metadata7">
    <rdf:RDF>
      <cc:Work
         rdf:about="">
        <dc:format>image/svg+xml</dc:format>
        <dc:type
           rdf:resource="http://purl.org/dc/dcmitype/StillImage" />
        <dc:title></dc:title>
      </cc:Work>
    </rdf:RDF>
  </metadata>
  <g
     inkscape:label="Layer 1"
     inkscape:groupmode="layer"
     id="layer1"
     transform="translate(0,-814.86222)">
    <path
       style="fill:none;fill-opacity:1;stroke:#5300b7;stroke-width:19.60000038;stroke-miterlimit:4;stroke-dasharray:none;stroke-opacity:1;filter:url(#filter4273)"
       d="m 36.355588,646.05456 251.527992,0 0,326.75365 -251.527992,0 z"
       id="rect3336"
       inkscape:connector-curvature="0"
       sodipodi:nodetypes="ccccc"
       transform="matrix(0.47694419,0,0,0.47694419,-1.269705,546.93803)" />
    <path
       style="opacity:1;fill:url(#linearGradient4159);fill-opacity:1;stroke:#5300b7;stroke-width:9.34810638;stroke-miterlimit:4;stroke-dasharray:none;stroke-opacity:1"
       d="m 16.069885,857.36534 95.789355,-19.27145 0,188.87731 -95.789355,-16.0579 z"
       id="rect4138"
       inkscape:connector-curvature="0"
       sodipodi:nodetypes="ccccc" />
    <ellipse
       style="fill:#ffffff;fill-opacity:1;stroke:#5300b7;stroke-width:1.79999995;stroke-miterlimit:4;stroke-dasharray:none;stroke-opacity:1;filter:url(#filter4380)"
       id="path4143"
       cx="203.09207"
       cy="806.91919"
       rx="6.7376513"
       ry="17.32539"
       transform="matrix(0.47694419,0,0,0.47694419,-1.269705,546.93803)" />
    <text
       xml:space="preserve"
       style="font-style:normal;font-weight:normal;font-size:19.07776833px;line-height:125%;font-family:sans-serif;letter-spacing:0px;word-spacing:0px;fill:#000000;fill-opacity:1;stroke:none;stroke-width:1px;stroke-linecap:butt;stroke-linejoin:miter;stroke-opacity:1"
       x="195.21188"
       y="813.35364"
       id="text4332"
       sodipodi:linespacing="125%"><tspan
         sodipodi:role="line"
         id="tspan4334"
         x="195.21188"
         y="813.35364" /></text>
    <path
       style="opacity:1;fill:#ffffff;fill-opacity:1;stroke:none;stroke-width:6;stroke-miterlimit:4;stroke-dasharray:none;stroke-opacity:1"
       id="path4338"
       d="m 178.86343,950.40032 c 0.11039,-2.8038 0.11554,-5.61041 0.11402,-8.41597 -0.0128,-2.68853 -0.0342,-5.37695 -0.0576,-8.06541 -9.5e-4,-1.17796 -0.27337,-2.2791 0.40746,-3.30353 5.77826,-3.49095 5.5637,-3.83453 10.71096,-4.27504 2.31774,-0.1106 4.6428,-0.25029 6.96175,-0.12076 2.71308,0.42872 4.55055,2.2673 6.32853,4.20545 2.26274,2.87609 3.9393,6.13504 5.48148,9.43674 0.95558,2.23353 2.08114,4.40465 2.86488,6.70829 0.19352,0.59593 0.37119,1.19699 0.39288,1.82578 -0.17314,3.9113 -0.26431,7.82554 -0.40541,11.73815 -0.43489,9.83168 -0.75435,19.66528 -0.83862,29.50629 -0.0252,4.94778 -0.12597,9.89313 -0.43575,14.83169 0,0 -5.97756,2.9716 -5.97756,2.9716 l 0,0 c 0.67318,-4.9962 0.91272,-10.03292 1.02951,-15.07012 0.2058,-9.82573 0.61602,-19.64361 0.76828,-29.47022 -0.0308,-3.79974 -0.0971,-7.59814 -0.24201,-11.39531 0.0179,-0.57496 -0.0533,-1.13666 -0.21351,-1.69248 -0.64985,-2.32646 -1.71107,-4.50948 -2.63177,-6.73555 -1.50222,-3.24093 -3.15327,-6.44983 -5.42712,-9.2272 -1.73772,-1.8162 -3.495,-3.47777 -6.11838,-3.72878 -2.30098,-0.0761 -4.60766,0.0134 -6.90219,0.19442 -1.01526,0.11077 -2.01313,0.23023 -3.00693,0.4733 -2.42057,0.59205 -5.421,2.64091 3.96505,-2.74093 -0.12211,0.0511 -0.26026,0.074 -0.36634,0.15319 -0.65652,0.48993 -0.26769,2.00145 -0.38723,2.67929 -0.0234,2.70801 -0.0447,5.41598 -0.0576,8.12406 -0.001,2.76682 0.002,5.5348 0.11402,8.29978 0,0 -6.07088,3.09327 -6.07088,3.09327 z"
       inkscape:connector-curvature="0" />
    <path
       style="opacity:1;fill:#ffffff;fill-opacity:1;stroke:none;stroke-width:6;stroke-miterlimit:4;stroke-dasharray:none;stroke-opacity:1"
       id="path4340"
       d="m 204.61215,1008.6069 c 0.67672,-6.8057 0.69539,-13.67001 0.75323,-20.50446 0.12985,-11.71741 0.18461,-23.43561 0.11892,-35.15358 -0.058,-7.67055 -0.15117,-15.34093 -0.26719,-23.01087 -0.0371,-2.41833 -0.0887,-4.83637 -0.14585,-7.25429 0,0 5.98921,-3.05172 5.98921,-3.05172 l 0,0 c -0.0566,2.46713 -0.10747,4.93438 -0.14396,7.40191 -0.11313,7.76011 -0.20332,15.52063 -0.2631,23.2813 -0.0698,11.6974 -0.0132,23.39474 0.01,35.09222 -0.028,6.72915 0.0438,13.45766 0.0482,20.18689 0,0 -6.09901,3.0126 -6.09901,3.0126 z"
       inkscape:connector-curvature="0" />
    <path
       style="opacity:1;fill:#5300b7;fill-opacity:1;stroke:none;stroke-width:6;stroke-miterlimit:4;stroke-dasharray:none;stroke-opacity:1"
       id="path4348"
       d="m 156.37373,927.42612 c 0.1176,-3.09964 0.10192,-6.20199 0.1026,-9.3032 -0.0223,-3.05446 -4.8e-4,-6.10911 -0.0453,-9.1634 0.0152,-2.00536 -0.13577,-4.01552 0.0973,-6.01036 0.46087,-2.4503 1.85097,-4.12053 3.67001,-5.73389 4.66755,-3.73814 10.13572,-6.4606 15.30151,-9.39339 2.67081,-1.29551 5.45945,-2.1854 8.37011,-2.75087 2.28754,-0.30585 4.62421,-0.57999 6.93212,-0.38364 2.30893,0.37177 3.66283,1.53777 5.11567,3.27182 1.85352,1.99244 3.22155,4.29779 4.28659,6.781 0.92834,2.79936 1.59479,5.6737 2.07539,8.58098 0.27754,2.14768 0.40196,4.31332 0.42607,6.47777 0.13094,4.35655 0.13144,1.63501 -7.95172,5.42075 0.01,-1.06114 0.013,-2.12232 0.0151,-3.18349 -0.066,-1.5266 0.005,-2.97609 0.40049,-4.45501 0.81947,-3.10253 2.68569,-5.74867 4.39353,-8.41847 2.10892,-3.05904 4.24548,-6.13651 6.82851,-8.82191 1.02781,-1.09853 2.19657,-2.07121 3.50532,-2.82336 8.14613,-4.68172 5.39034,-3.45469 8.89999,-4.98404 1.45286,-0.3564 2.94931,-0.34333 4.43475,-0.34409 2.26307,-0.12839 3.66562,0.1588 5.54487,1.44574 1.73665,0.80636 2.96999,2.21001 4.24396,3.57522 1.14581,1.43497 1.73006,3.20221 2.15689,4.96164 0.45635,2.68072 0.40126,5.41476 0.42524,8.12441 0.0251,2.77137 4.6e-4,5.54327 0.051,8.31434 0.0121,0.90043 0.015,1.80137 0.0429,2.70148 0,0 -7.94089,4.02405 -7.94089,4.02405 l 0,0 c 0.0309,-0.91664 0.0383,-1.83411 0.0543,-2.75111 0.0623,-2.78366 0.055,-5.56853 0.0476,-8.35275 -0.028,-2.63383 -0.0254,-5.28803 -0.44778,-7.89488 -0.37299,-1.62534 -0.88164,-3.24296 -1.94697,-4.56007 -1.22023,-1.32214 -2.43139,-2.61584 -4.09889,-3.40239 -1.79288,-1.05758 -3.22744,-1.11672 -5.27468,-1.00626 -1.43381,0.0415 -2.90672,0.0618 -4.23724,0.66229 -2.92929,1.45521 -0.8458,0.43537 6.27632,-3.68213 0.26662,-0.15414 -0.53217,0.31012 -0.79679,0.46765 -1.05731,0.62938 -2.104,1.26184 -2.90408,2.22042 -2.7315,2.51012 -4.80319,5.65257 -6.94445,8.65637 -1.644,2.5877 -3.53447,5.13153 -4.36779,8.11793 -0.14901,0.54402 -0.364,1.07604 -0.43363,1.63563 -0.10497,0.84365 0.0814,1.72891 0.004,2.57579 10e-4,1.04746 -0.001,2.09518 0.027,3.14235 -9.14464,4.97738 -8.01239,7.06396 -7.8938,2.63474 0.0123,-2.14177 0.0203,-4.28875 -0.25042,-6.41834 -0.42302,-2.84278 -1.11094,-5.64315 -1.97667,-8.38329 -1.10622,-2.49734 -2.28712,-4.54551 -4.21068,-6.53176 -1.343,-1.5697 -2.63297,-2.47628 -4.74888,-2.66108 -2.25326,-0.0721 -4.51613,0.11744 -6.73257,0.52583 -2.84599,0.63211 -5.58403,1.57425 -8.17596,2.92026 13.02928,-7.56623 2.26044,-1.54208 -0.42818,0.69175 -0.64992,0.54838 -1.37772,1.01527 -1.95508,1.63887 -0.90943,0.98227 -1.46318,2.26477 -1.91357,3.49934 -0.32839,1.9516 -0.0944,3.94777 -0.18979,5.9202 -0.0442,3.0696 -0.0232,6.13954 -0.0453,9.20929 4.8e-4,3.06653 -0.0164,6.13429 0.1026,9.19917 0,0 -7.92148,4.0161 -7.92148,4.0161 z"
       inkscape:connector-curvature="0" />
    <path
       style="opacity:1;fill:#5300b7;fill-opacity:1;stroke:none;stroke-width:6;stroke-miterlimit:4;stroke-dasharray:none;stroke-opacity:1"
       id="path4350"
       d="m 253.68934,882.69274 c -0.0439,1.71015 -0.0366,3.42118 -0.0331,5.13175 0.0148,1.76505 -0.34272,2.68671 1.35076,3.67036 2.77724,0.87963 5.74892,0.84387 8.635,0.91589 2.95356,-0.1277 5.98317,0.35482 8.916,-0.15024 0.54202,-0.0933 1.06862,-0.2602 1.60293,-0.39031 2.76548,-1.10323 8.93586,-4.07902 -3.1571,2.13668 -0.46469,0.23886 0.86202,-0.5927 1.26054,-0.92976 0.99615,-0.84256 1.28816,-1.28476 2.11262,-2.28073 1.52123,-1.92496 2.5852,-4.14444 3.58307,-6.36834 0.37759,-1.01805 0.65247,-2.06641 1.04546,-3.07952 2.69923,-1.25513 5.31579,-2.70394 8.0977,-3.76539 0.20106,-0.0767 0.094,0.41956 0.11158,0.63311 0.027,0.32907 0.0197,0.66012 0.0217,0.99029 0.0122,2.02765 0.0207,4.05319 0.0537,6.08103 0.49917,10.36261 3.02486,20.47191 5.58774,30.48244 2.85446,10.48564 6.27221,20.80234 9.08062,31.30016 1.01892,4.09605 1.80184,8.25249 2.36621,12.4346 0.31767,2.3539 0.72042,5.80898 0.64041,8.1817 -0.0474,1.40759 -0.30652,2.8002 -0.45978,4.2003 -1.36434,6.05338 -4.1774,11.62663 -8.4939,16.13946 -3.03702,3.17515 -4.12381,3.62136 -7.76937,6.08324 -3.85024,2.07111 -7.5984,4.34223 -11.5507,6.21334 -1.63502,0.7741 -3.41558,1.2047 -5.15741,1.6967 -5.20283,1.4696 -10.61203,2.2983 -16.00461,2.6345 -1.64396,0.1026 -3.29312,0.09 -4.93969,0.1349 -6.52278,-4e-4 -12.86068,-1.4588 -18.98995,-3.5568 -1.15909,-0.3786 -2.29345,-0.8246 -3.43652,-1.24701 0,0 7.34632,-4.89357 7.34632,-4.89357 l 0,0 c 1.06977,0.46657 2.13151,0.9534 3.23394,1.34168 5.89222,2.19954 12.04056,3.5828 18.36708,3.6146 1.61199,-0.043 3.22695,-0.023 4.83597,-0.1298 3.48068,-0.23042 7.22026,-0.7413 10.6318,-1.46013 1.76446,-0.37179 3.52124,-0.79237 5.2481,-1.31028 1.73698,-0.52095 3.31942,-1.72837 5.13204,-1.80289 0.92885,-0.0382 -1.47827,1.12205 -2.21741,1.68307 3.64375,-2.34917 4.76072,-2.78947 7.82024,-5.85584 4.32804,-4.33772 7.16002,-9.74616 8.58768,-15.66229 0.17128,-1.36087 0.45645,-2.7123 0.51384,-4.08261 0.0573,-1.3697 -0.0682,-2.74206 -0.17076,-4.10914 -0.41443,-5.52666 -1.50137,-10.98816 -2.68369,-16.39292 -2.66244,-10.55567 -5.86752,-20.96163 -8.85228,-31.42959 -2.48955,-10.01808 -5.20087,-20.04398 -6.21724,-30.3441 -0.11672,-1.97664 -0.25156,-3.95026 -0.34548,-5.9276 -0.0162,-0.3414 -0.0839,-1.25449 -0.0804,-1.25655 2.57098,-1.50884 5.2525,-2.82289 7.87876,-4.23435 -0.73362,0.82712 -0.82565,2.04942 -1.2274,3.03586 -0.9602,2.31255 -2.12331,4.58044 -3.5887,6.61835 -0.71382,0.95005 -1.17345,1.64012 -2.03559,2.47123 -3.59206,3.46277 -8.37591,5.69248 -13.09669,7.23611 -0.55282,0.0995 -1.10082,0.23052 -1.65845,0.29836 -2.96814,0.36112 -5.99471,-0.0216 -8.97263,0.0711 -3.03004,-0.0871 -6.21581,-0.0279 -9.04933,-1.22762 -1.84067,-1.34827 -1.86468,-2.263 -1.77422,-4.42304 0.004,-1.6994 0.0112,-3.39926 -0.0331,-5.09822 0,0 7.93355,-4.02221 7.93355,-4.02221 z"
       inkscape:connector-curvature="0" />
    <text
       xml:space="preserve"
       style="font-style:normal;font-weight:normal;font-size:22.5px;line-height:125%;font-family:sans-serif;letter-spacing:0px;word-spacing:0px;fill:url(#linearGradient4446);fill-opacity:1;stroke:none;stroke-width:1px;stroke-linecap:butt;stroke-linejoin:miter;stroke-opacity:1"
       x="-26.384043"
       y="962.53333"
       id="text4372"
       sodipodi:linespacing="125%"
       transform="matrix(0.98042374,-0.19689918,0.19689918,0.98042374,0,0)"><tspan
         sodipodi:role="line"
         id="tspan4374"
         x="-26.384043"
         y="962.53333"
         style="font-size:25px;fill:url(#linearGradient4446);fill-opacity:1">cupboard</tspan></text>
  </g>
</svg>
