<?xml version="1.0" encoding="UTF-8" standalone="no"?>
<!-- Created with Inkscape (http://www.inkscape.org/) -->

<svg
   xmlns:dc="http://purl.org/dc/elements/1.1/"
   xmlns:cc="http://creativecommons.org/ns#"
   xmlns:rdf="http://www.w3.org/1999/02/22-rdf-syntax-ns#"
   xmlns:svg="http://www.w3.org/2000/svg"
   xmlns="http://www.w3.org/2000/svg"
   xmlns:sodipodi="http://sodipodi.sourceforge.net/DTD/sodipodi-0.dtd"
   xmlns:inkscape="http://www.inkscape.org/namespaces/inkscape"
   width="230.88069mm"
   height="224.33473mm"
   viewBox="0 0 818.08119 794.88684"
   id="svg9024"
   version="1.1"
   inkscape:version="0.91 r13725"
   sodipodi:docname="banana.svg">
  <defs
     id="defs9026" />
  <sodipodi:namedview
     id="base"
     pagecolor="#ffffff"
     bordercolor="#666666"
     borderopacity="1.0"
     inkscape:pageopacity="0.0"
     inkscape:pageshadow="2"
     inkscape:zoom="0.49497475"
     inkscape:cx="359.12225"
     inkscape:cy="325.07034"
     inkscape:document-units="px"
     inkscape:current-layer="layer1"
     showgrid="false"
     inkscape:window-width="1055"
     inkscape:window-height="989"
     inkscape:window-x="10"
     inkscape:window-y="4"
     inkscape:window-maximized="0"
     fit-margin-top="0"
     fit-margin-left="0"
     fit-margin-right="0"
     fit-margin-bottom="0" />
  <metadata
     id="metadata9029">
    <rdf:RDF>
      <cc:Work
         rdf:about="">
        <dc:format>image/svg+xml</dc:format>
        <dc:type
           rdf:resource="http://purl.org/dc/dcmitype/StillImage" />
        <dc:title></dc:title>
      </cc:Work>
    </rdf:RDF>
  </metadata>
  <g
     inkscape:label="Layer 1"
     inkscape:groupmode="layer"
     id="layer1"
     transform="translate(48.046282,-119.7186)">
    <g
       id="g9635"
       transform="matrix(0.83355796,0.55243201,-0.55243201,0.83355796,182.46919,-220.0895)">
      <g
         id="g9637">
        <path
           sodipodi:nodetypes="csaaasaac"
           inkscape:connector-curvature="0"
           id="path9639"
           d="m 561.29097,200.29816 92.99475,43.49261 c 83.34261,38.97841 105.9841,130.23487 108.57142,208.57143 3.99946,121.0921 -60.41898,247.20659 -146.1892,332.77972 -68.29362,68.13669 -171.72627,139.49671 -265.23937,115.79171 -20.36517,-5.16245 -45.26165,-10.95535 -38.77531,-49.68899 1.62159,-9.68341 135.16853,-125.57836 177.89208,-205.46195 35.11045,-65.64878 62.67026,-140.96335 59.27746,-215.334 -2.51941,-55.2257 -2.69013,-110.04979 -58.39422,-155.22934"
           style="fill:#ffff00;fill-opacity:1;fill-rule:evenodd;stroke:#000000;stroke-width:14;stroke-linecap:butt;stroke-linejoin:miter;stroke-miterlimit:4;stroke-dasharray:none;stroke-opacity:1" />
        <path
           sodipodi:nodetypes="caacc"
           inkscape:connector-curvature="0"
           id="path9641"
           d="m 493.92857,278.07649 c -48.57143,-94.28571 -59.04842,-66.50894 -54.21573,-105.85786 2.56218,-20.86193 20.46768,-46.68702 41.47063,-47.5 37.1045,-1.43624 79.53081,78.00072 79.53081,78.00072 l -68.92857,76.78571"
           style="fill:#c3a400;fill-opacity:1;fill-rule:evenodd;stroke:#000000;stroke-width:14;stroke-linecap:butt;stroke-linejoin:miter;stroke-miterlimit:4;stroke-dasharray:none;stroke-opacity:1" />
      </g>
      <path
         style="fill:#ffdb1c;fill-opacity:1;fill-rule:evenodd;stroke:#000000;stroke-width:10;stroke-linecap:butt;stroke-linejoin:miter;stroke-miterlimit:4;stroke-dasharray:none;stroke-opacity:1"
         d="m 359.60018,901.2767 c 0,0 113.07006,16.81463 218.33482,-80.45347 86.12847,-79.58554 165.9106,-214.67472 178.65313,-301.58715 11.05333,-75.39092 -19.15127,-203.82171 -35.26728,-225.85377 -26.37146,-36.05222 -73.96086,-50.50088 -113.64156,-71.01084 -13.592,-7.02537 -54.659,-38.78689 -42.35552,-17.68881 12.30348,21.09809 124.66228,169.40977 127.65139,187.98866 17.30989,107.59019 -31.3624,225.24784 -92.94455,316.23902 -58.59679,86.58014 -246.47722,193.94928 -246.47722,193.94928"
         id="path9643"
         inkscape:connector-curvature="0"
         sodipodi:nodetypes="csssassac" />
    </g>
    <g
       transform="matrix(0.96006757,0.27976822,-0.27976822,0.96006757,65.937416,-123.66492)"
       id="g9645">
      <g
         id="g9647">
        <path
           style="fill:#ffff00;fill-opacity:1;fill-rule:evenodd;stroke:#000000;stroke-width:14;stroke-linecap:butt;stroke-linejoin:miter;stroke-miterlimit:4;stroke-dasharray:none;stroke-opacity:1"
           d="m 561.29097,200.29816 92.99475,43.49261 c 83.34261,38.97841 105.9841,130.23487 108.57142,208.57143 3.99946,121.0921 -60.41898,247.20659 -146.1892,332.77972 -68.29362,68.13669 -171.72627,139.49671 -265.23937,115.79171 -20.36517,-5.16245 -45.26165,-10.95535 -38.77531,-49.68899 1.62159,-9.68341 135.16853,-125.57836 177.89208,-205.46195 35.11045,-65.64878 62.67026,-140.96335 59.27746,-215.334 -2.51941,-55.2257 -2.69013,-110.04979 -58.39422,-155.22934"
           id="path9649"
           inkscape:connector-curvature="0"
           sodipodi:nodetypes="csaaasaac" />
        <path
           style="fill:#c3a400;fill-opacity:1;fill-rule:evenodd;stroke:#000000;stroke-width:14;stroke-linecap:butt;stroke-linejoin:miter;stroke-miterlimit:4;stroke-dasharray:none;stroke-opacity:1"
           d="m 493.92857,278.07649 c -48.57143,-94.28571 -59.04842,-66.50894 -54.21573,-105.85786 2.56218,-20.86193 20.46768,-46.68702 41.47063,-47.5 37.1045,-1.43624 79.53081,78.00072 79.53081,78.00072 l -68.92857,76.78571"
           id="path9651"
           inkscape:connector-curvature="0"
           sodipodi:nodetypes="caacc" />
      </g>
      <path
         sodipodi:nodetypes="csssassac"
         inkscape:connector-curvature="0"
         id="path9653"
         d="m 359.60018,901.2767 c 0,0 113.07006,16.81463 218.33482,-80.45347 86.12847,-79.58554 165.9106,-214.67472 178.65313,-301.58715 11.05333,-75.39092 -19.15127,-203.82171 -35.26728,-225.85377 -26.37146,-36.05222 -73.96086,-50.50088 -113.64156,-71.01084 -13.592,-7.02537 -54.659,-38.78689 -42.35552,-17.68881 12.30348,21.09809 124.66228,169.40977 127.65139,187.98866 17.30989,107.59019 -31.3624,225.24784 -92.94455,316.23902 -58.59679,86.58014 -246.47722,193.94928 -246.47722,193.94928"
         style="fill:#ffdb1c;fill-opacity:1;fill-rule:evenodd;stroke:#000000;stroke-width:10;stroke-linecap:butt;stroke-linejoin:miter;stroke-miterlimit:4;stroke-dasharray:none;stroke-opacity:1" />
    </g>
    <g
       id="g9629"
       transform="translate(0,2.0203051)">
      <g
         id="g9601">
        <path
           style="fill:#ffff00;fill-opacity:1;fill-rule:evenodd;stroke:#000000;stroke-width:14;stroke-linecap:butt;stroke-linejoin:miter;stroke-miterlimit:4;stroke-dasharray:none;stroke-opacity:1"
           d="m 561.29097,200.29816 92.99475,43.49261 c 83.34261,38.97841 105.9841,130.23487 108.57142,208.57143 3.99946,121.0921 -60.41898,247.20659 -146.1892,332.77972 -68.29362,68.13669 -171.72627,139.49671 -265.23937,115.79171 -20.36517,-5.16245 -45.26165,-10.95535 -38.77531,-49.68899 1.62159,-9.68341 135.16853,-125.57836 177.89208,-205.46195 35.11045,-65.64878 62.67026,-140.96335 59.27746,-215.334 -2.51941,-55.2257 -2.69013,-110.04979 -58.39422,-155.22934"
           id="path9574"
           inkscape:connector-curvature="0"
           sodipodi:nodetypes="csaaasaac" />
        <path
           style="fill:#c3a400;fill-opacity:1;fill-rule:evenodd;stroke:#000000;stroke-width:14;stroke-linecap:butt;stroke-linejoin:miter;stroke-miterlimit:4;stroke-dasharray:none;stroke-opacity:1"
           d="m 493.92857,278.07649 c -48.57143,-94.28571 -59.04842,-66.50894 -54.21573,-105.85786 2.56218,-20.86193 20.46768,-46.68702 41.47063,-47.5 37.1045,-1.43624 79.53081,78.00072 79.53081,78.00072 l -68.92857,76.78571"
           id="path9599"
           inkscape:connector-curvature="0"
           sodipodi:nodetypes="caacc" />
      </g>
      <path
         sodipodi:nodetypes="csssassac"
         inkscape:connector-curvature="0"
         id="path9617"
         d="m 359.60018,901.2767 c 0,0 113.07006,16.81463 218.33482,-80.45347 86.12847,-79.58554 165.9106,-214.67472 178.65313,-301.58715 11.05333,-75.39092 -19.15127,-203.82171 -35.26728,-225.85377 -26.37146,-36.05222 -73.96086,-50.50088 -113.64156,-71.01084 -13.592,-7.02537 -54.659,-38.78689 -42.35552,-17.68881 12.30348,21.09809 124.66228,169.40977 127.65139,187.98866 17.30989,107.59019 -31.3624,225.24784 -92.94455,316.23902 -58.59679,86.58014 -246.47722,193.94928 -246.47722,193.94928"
         style="fill:#ffdb1c;fill-opacity:1;fill-rule:evenodd;stroke:#000000;stroke-width:10;stroke-linecap:butt;stroke-linejoin:miter;stroke-miterlimit:4;stroke-dasharray:none;stroke-opacity:1" />
    </g>
  </g>
</svg>
