<?xml version="1.0" encoding="UTF-8" standalone="no"?>
<!-- Created with Inkscape (http://www.inkscape.org/) -->

<svg
   xmlns:dc="http://purl.org/dc/elements/1.1/"
   xmlns:cc="http://creativecommons.org/ns#"
   xmlns:rdf="http://www.w3.org/1999/02/22-rdf-syntax-ns#"
   xmlns:svg="http://www.w3.org/2000/svg"
   xmlns="http://www.w3.org/2000/svg"
   xmlns:sodipodi="http://sodipodi.sourceforge.net/DTD/sodipodi-0.dtd"
   xmlns:inkscape="http://www.inkscape.org/namespaces/inkscape"
   width="134.82448mm"
   height="134.82448mm"
   viewBox="0 0 477.72453 477.72453"
   id="svg8081"
   version="1.1"
   inkscape:version="0.91 r13725"
   sodipodi:docname="flour.svg">
  <defs
     id="defs8083" />
  <sodipodi:namedview
     id="base"
     pagecolor="#ffffff"
     bordercolor="#666666"
     borderopacity="1.0"
     inkscape:pageopacity="0.0"
     inkscape:pageshadow="2"
     inkscape:zoom="0.7"
     inkscape:cx="223.77477"
     inkscape:cy="103.76075"
     inkscape:document-units="px"
     inkscape:current-layer="layer1"
     showgrid="false"
     fit-margin-top="0"
     fit-margin-left="0"
     fit-margin-right="0"
     fit-margin-bottom="0"
     inkscape:window-width="1031"
     inkscape:window-height="991"
     inkscape:window-x="0"
     inkscape:window-y="1"
     inkscape:window-maximized="0" />
  <metadata
     id="metadata8086">
    <rdf:RDF>
      <cc:Work
         rdf:about="">
        <dc:format>image/svg+xml</dc:format>
        <dc:type
           rdf:resource="http://purl.org/dc/dcmitype/StillImage" />
        <dc:title></dc:title>
      </cc:Work>
    </rdf:RDF>
  </metadata>
  <g
     inkscape:label="Layer 1"
     inkscape:groupmode="layer"
     id="layer1"
     transform="translate(-77.566288,-174.92847)">
    <path
       style="opacity:1;fill:#00ff00;fill-opacity:1;stroke:#000000;stroke-width:14;stroke-linecap:round;stroke-miterlimit:4;stroke-dasharray:none;stroke-opacity:1"
       d="m 148.57143,238.07648 c 0,0 106.09101,-32.14286 160,-32.14286 53.90899,0 160,32.14286 160,32.14286 0,0 17.85714,116.19048 17.85714,174.28572 0,58.09524 -17.85714,174.28572 -17.85714,174.28572 0,0 -106.66667,28.57143 -160,28.57143 -53.33333,0 -160,-28.57143 -160,-28.57143 0,0 -19.28571,-116.19048 -19.28571,-174.28572 0,-58.09524 19.28571,-174.28572 19.28571,-174.28572 z"
       id="rect8092"
       inkscape:connector-curvature="0"
       sodipodi:nodetypes="czczczczc" />
    <path
       sodipodi:type="star"
       style="opacity:1;fill:#956b16;fill-opacity:1;stroke:#000000;stroke-width:14;stroke-linecap:round;stroke-miterlimit:4;stroke-dasharray:none;stroke-opacity:1"
       id="path8095"
       sodipodi:sides="4"
       sodipodi:cx="316.42856"
       sodipodi:cy="413.79074"
       sodipodi:r1="309.10834"
       sodipodi:r2="58.996292"
       sodipodi:arg1="-2.3529265"
       sodipodi:arg2="-1.6660986"
       inkscape:flatsided="false"
       inkscape:rounded="0.33"
       inkscape:randomized="0"
       d="M 98.571416,194.50501 C 154.46002,126.75999 222.99181,354.77007 310.81458,355.06216 401.73,355.36455 465.58365,138.0769 535.71428,195.9336 603.45931,251.8222 375.44923,320.35399 375.15714,408.17677 374.85475,499.09218 592.1424,562.94583 534.2857,633.07647 478.39709,700.8215 409.86531,472.81141 322.04253,472.51932 231.12712,472.21694 167.27347,689.50458 97.142832,631.64788 29.397803,575.75928 257.40789,507.22749 257.69998,419.40471 258.00236,328.4893 40.714721,264.63565 98.571416,194.50501 Z"
       inkscape:transform-center-x="5.1269793"
       inkscape:transform-center-y="-4.3765982" />
    <path
       sodipodi:nodetypes="czczczczc"
       inkscape:connector-curvature="0"
       id="path8097"
       d="m 151.12,241.68904 c 0,0 104.39356,-31.4697 157.44,-31.4697 53.04644,0 157.44,31.4697 157.44,31.4697 0,0 17.57143,113.75717 17.57143,170.63577 0,56.87858 -17.57143,170.63575 -17.57143,170.63575 0,0 -104.96001,27.97307 -157.44,27.97307 -52.48,0 -157.44,-27.97307 -157.44,-27.97307 0,0 -18.97714,-113.75717 -18.97714,-170.63575 0,-56.8786 18.97714,-170.63577 18.97714,-170.63577 z"
       style="opacity:1;fill:#956b16;fill-opacity:1;stroke:none;stroke-width:8.39400005;stroke-linecap:round;stroke-miterlimit:4;stroke-dasharray:none;stroke-opacity:1" />
    <text
       xml:space="preserve"
       style="font-style:normal;font-weight:normal;font-size:40px;line-height:125%;font-family:sans-serif;letter-spacing:0px;word-spacing:0px;fill:#000000;fill-opacity:1;stroke:none;stroke-width:1px;stroke-linecap:butt;stroke-linejoin:miter;stroke-opacity:1"
       x="173.57143"
       y="433.07648"
       id="text8639"
       sodipodi:linespacing="125%"><tspan
         sodipodi:role="line"
         id="tspan8641"
         x="173.57143"
         y="433.07648"
         style="font-size:80px;fill:#ffffff;fill-opacity:1">FLOUR</tspan></text>
  </g>
</svg>
