<?xml version="1.0" encoding="UTF-8" standalone="no"?>
<!-- Created with Inkscape (http://www.inkscape.org/) -->

<svg
   xmlns:dc="http://purl.org/dc/elements/1.1/"
   xmlns:cc="http://creativecommons.org/ns#"
   xmlns:rdf="http://www.w3.org/1999/02/22-rdf-syntax-ns#"
   xmlns:svg="http://www.w3.org/2000/svg"
   xmlns="http://www.w3.org/2000/svg"
   xmlns:sodipodi="http://sodipodi.sourceforge.net/DTD/sodipodi-0.dtd"
   xmlns:inkscape="http://www.inkscape.org/namespaces/inkscape"
   width="91.86058mm"
   height="92.851311mm"
   viewBox="0 0 325.49025 329.00071"
   id="svg7722"
   version="1.1"
   inkscape:version="0.91 r13725"
   sodipodi:docname="lemon.svg">
  <defs
     id="defs7724" />
  <sodipodi:namedview
     id="base"
     pagecolor="#ffffff"
     bordercolor="#666666"
     borderopacity="1.0"
     inkscape:pageopacity="0.0"
     inkscape:pageshadow="2"
     inkscape:zoom="0.7"
     inkscape:cx="-63.308572"
     inkscape:cy="57.800308"
     inkscape:document-units="px"
     inkscape:current-layer="layer1"
     showgrid="false"
     fit-margin-top="0"
     fit-margin-left="0"
     fit-margin-right="0"
     fit-margin-bottom="0"
     inkscape:window-width="937"
     inkscape:window-height="1006"
     inkscape:window-x="0"
     inkscape:window-y="1"
     inkscape:window-maximized="0" />
  <metadata
     id="metadata7727">
    <rdf:RDF>
      <cc:Work
         rdf:about="">
        <dc:format>image/svg+xml</dc:format>
        <dc:type
           rdf:resource="http://purl.org/dc/dcmitype/StillImage" />
        <dc:title />
      </cc:Work>
    </rdf:RDF>
  </metadata>
  <g
     inkscape:label="Layer 1"
     inkscape:groupmode="layer"
     id="layer1"
     transform="translate(-195.85327,-356.06599)">
    <path
       style="fill:#ffe300;fill-opacity:1;fill-rule:evenodd;stroke:#000000;stroke-width:13;stroke-linecap:round;stroke-linejoin:miter;stroke-miterlimit:4;stroke-dasharray:none;stroke-opacity:1"
       d="m 289.91379,380.61076 c 0,0 -75.77692,44.8231 -86.583,125.98843 -6.75867,50.76493 22.42387,140.67439 84.56268,160.89489 100.42454,32.679 142.6436,-9.63535 205.89781,-85.22046"
       id="path8330"
       inkscape:connector-curvature="0"
       sodipodi:nodetypes="cssc" />
    <ellipse
       style="opacity:1;fill:#ffe300;fill-opacity:1;stroke:#ffffff;stroke-width:14.28745365;stroke-linecap:round;stroke-miterlimit:4;stroke-dasharray:none;stroke-opacity:1"
       id="path8270"
       cx="242.27702"
       cy="508.32501"
       rx="112.85714"
       ry="117.53918"
       transform="matrix(1,0,0.27942976,0.96016614,0,0)" />
    <path
       id="circle8298"
       style="opacity:1;fill:none;fill-opacity:1;stroke:#ffffff;stroke-width:14.28745365;stroke-linecap:round;stroke-miterlimit:4;stroke-dasharray:none;stroke-opacity:1"
       sodipodi:type="arc"
       sodipodi:cx="242.27702"
       sodipodi:cy="508.32501"
       sodipodi:rx="112.85714"
       sodipodi:ry="117.53918"
       sodipodi:start="0"
       sodipodi:end="3.1415927"
       d="m 355.13416,508.32501 a 112.85714,117.53918 0 0 1 -56.42857,101.79192 112.85714,117.53918 0 0 1 -112.85714,-10e-6 112.85714,117.53918 0 0 1 -56.42857,-101.79191 l 112.85714,0 z"
       transform="matrix(1,0,0.27942976,0.96016614,0,0)" />
    <path
       d="M 355.13416,508.32501 A 112.85714,117.53918 0 0 1 261.87446,624.0785 112.85714,117.53918 0 0 1 136.226,548.52578 112.85714,117.53918 0 0 1 185.84845,406.5331 l 56.42857,101.79191 z"
       sodipodi:end="4.1887902"
       sodipodi:start="0"
       sodipodi:ry="117.53918"
       sodipodi:rx="112.85714"
       sodipodi:cy="508.32501"
       sodipodi:cx="242.27702"
       sodipodi:type="arc"
       style="opacity:1;fill:none;fill-opacity:1;stroke:#ffffff;stroke-width:14.28745365;stroke-linecap:round;stroke-miterlimit:4;stroke-dasharray:none;stroke-opacity:1"
       id="path8300"
       transform="matrix(1,0,0.27942976,0.96016614,0,0)" />
    <path
       id="path8302"
       style="opacity:1;fill:none;fill-opacity:1;stroke:#ffffff;stroke-width:14.28745365;stroke-linecap:round;stroke-miterlimit:4;stroke-dasharray:none;stroke-opacity:1"
       sodipodi:type="arc"
       sodipodi:cx="242.27702"
       sodipodi:cy="508.32501"
       sodipodi:rx="112.85714"
       sodipodi:ry="117.53918"
       sodipodi:start="0"
       sodipodi:end="5.2359878"
       d="M 355.13416,508.32501 A 112.85714,117.53918 0 0 1 271.4866,621.85914 112.85714,117.53918 0 0 1 144.53987,567.0946 112.85714,117.53918 0 0 1 162.47498,425.21226 112.85714,117.53918 0 0 1 298.7056,406.5331 l -56.42858,101.79191 z"
       transform="matrix(1,0,0.27942976,0.96016614,0,0)" />
    <path
       d="m 355.13416,508.32501 a 112.85714,117.53918 0 0 1 -56.42857,101.79192 112.85714,117.53918 0 0 1 -112.85714,0 l 56.42857,-101.79192 z"
       sodipodi:end="2.0943951"
       sodipodi:start="0"
       sodipodi:ry="117.53918"
       sodipodi:rx="112.85714"
       sodipodi:cy="508.32501"
       sodipodi:cx="242.27702"
       sodipodi:type="arc"
       style="opacity:1;fill:none;fill-opacity:1;stroke:#ffffff;stroke-width:14.28745365;stroke-linecap:round;stroke-miterlimit:4;stroke-dasharray:none;stroke-opacity:1"
       id="path8304"
       transform="matrix(1,0,0.27942976,0.96016614,0,0)" />
    <path
       id="path8306"
       style="opacity:1;fill:none;fill-opacity:1;stroke:#ffffff;stroke-width:14.28745365;stroke-linecap:round;stroke-miterlimit:4;stroke-dasharray:none;stroke-opacity:1"
       sodipodi:type="arc"
       sodipodi:cx="242.27702"
       sodipodi:cy="508.32501"
       sodipodi:rx="112.85714"
       sodipodi:ry="117.53918"
       sodipodi:start="0"
       sodipodi:end="1.0471976"
       d="M 355.13416,508.32501 A 112.85714,117.53918 0 0 1 298.70559,610.11693 L 242.27702,508.32501 Z"
       transform="matrix(1,0,0.27942976,0.96016614,0,0)" />
    <path
       style="opacity:1;fill:none;fill-opacity:1;stroke:#000000;stroke-width:14;stroke-linecap:round;stroke-miterlimit:4;stroke-dasharray:none;stroke-opacity:1"
       d="m 348.26094,363.08594 c -61.90291,-1.1948 -104.67425,50.01292 -92.19967,111.45898 9.65563,54.79569 60.943,112.29029 118.36893,130.5332 56.39147,19.23354 114.2772,1.74559 132.19175,-43.47206 18.03192,-40.65816 3.44349,-100.29991 -38.0855,-142.2348 -32.62534,-34.20534 -79.24507,-56.66779 -120.27551,-56.28532 z"
       id="circle8308"
       inkscape:connector-curvature="0" />
  </g>
</svg>
