<?xml version="1.0" encoding="UTF-8" standalone="no"?>
<!-- Created with Inkscape (http://www.inkscape.org/) -->

<svg
   xmlns:dc="http://purl.org/dc/elements/1.1/"
   xmlns:cc="http://creativecommons.org/ns#"
   xmlns:rdf="http://www.w3.org/1999/02/22-rdf-syntax-ns#"
   xmlns:svg="http://www.w3.org/2000/svg"
   xmlns="http://www.w3.org/2000/svg"
   xmlns:sodipodi="http://sodipodi.sourceforge.net/DTD/sodipodi-0.dtd"
   xmlns:inkscape="http://www.inkscape.org/namespaces/inkscape"
   width="136.10153mm"
   height="105.08134mm"
   viewBox="0 0 482.24952 372.33547"
   id="svg6425"
   version="1.1"
   inkscape:version="0.91 r13725"
   sodipodi:docname="steak.svg">
  <defs
     id="defs6427" />
  <sodipodi:namedview
     id="base"
     pagecolor="#ffffff"
     bordercolor="#666666"
     borderopacity="1.0"
     inkscape:pageopacity="0.0"
     inkscape:pageshadow="2"
     inkscape:zoom="0.98994949"
     inkscape:cx="258.4063"
     inkscape:cy="157.88112"
     inkscape:document-units="px"
     inkscape:current-layer="layer1"
     showgrid="false"
     inkscape:window-width="1035"
     inkscape:window-height="990"
     inkscape:window-x="-11"
     inkscape:window-y="4"
     inkscape:window-maximized="0"
     fit-margin-top="0"
     fit-margin-left="0"
     fit-margin-right="0"
     fit-margin-bottom="0" />
  <metadata
     id="metadata6430">
    <rdf:RDF>
      <cc:Work
         rdf:about="">
        <dc:format>image/svg+xml</dc:format>
        <dc:type
           rdf:resource="http://purl.org/dc/dcmitype/StillImage" />
        <dc:title></dc:title>
      </cc:Work>
    </rdf:RDF>
  </metadata>
  <g
     inkscape:label="Layer 1"
     inkscape:groupmode="layer"
     id="layer1"
     transform="translate(-117.25209,-276.9066)">
    <path
       style="opacity:1;fill:#b83723;fill-opacity:1;stroke:#d97974;stroke-width:14;stroke-linecap:round;stroke-miterlimit:4;stroke-dasharray:none;stroke-opacity:1"
       d="m 471.875,295.88281 c -32.67028,0.83317 -67.51199,8.87804 -91.74023,32.15039 -11.86512,11.7716 -13.95611,28.83688 -21.45899,43.10938 -10.04334,21.4313 -27.1718,42.18003 -51.42383,47.22851 -38.36182,8.62886 -77.58323,-11.1264 -115.54883,1.1211 -28.79039,8.67496 -53.43358,34.14209 -55.27148,65.0664 -1.20343,28.88077 14.46273,55.59222 33.60352,76.17969 45.021,47.65304 112.2259,73.04998 177.39648,68.53711 55.53963,-1.47742 113.58906,-7.39103 161.88281,-37.16016 31.41767,-19.85112 54.16198,-52.10904 63.20925,-88.25834 9.21547,-35.1754 7.88773,-71.82924 7.40733,-107.96725 -0.85706,-22.29091 -7.39999,-45.24506 -22.60681,-62.31737 C 544.84635,317.385 527.7711,304.00645 507.31055,299.69336 495.80709,296.82703 483.7484,295.81078 471.875,295.88281 Z"
       id="path6973"
       inkscape:connector-curvature="0" />
    <path
       style="opacity:1;fill:#dde2b3;fill-opacity:1;stroke:#000000;stroke-width:5;stroke-linecap:round;stroke-miterlimit:4;stroke-dasharray:none;stroke-opacity:1"
       d="m 492.09211,458.04675 c 0,14.20161 -4.81216,15.61276 -18.22479,15.61276 -13.41264,10e-6 -22.26542,1.61931 -22.26542,-12.5823 0,-14.20161 2.79187,-28.74474 16.2045,-28.74474 13.41263,0 24.28571,11.51268 24.28571,25.71428 z"
       id="path7007"
       inkscape:connector-curvature="0"
       sodipodi:nodetypes="sssss" />
    <path
       style="opacity:1;fill:none;fill-opacity:1;stroke:#d97974;stroke-width:5;stroke-linecap:round;stroke-miterlimit:4;stroke-dasharray:none;stroke-opacity:1"
       d="m 467.50195,428.25781 c -12.47753,-0.007 -20.04495,13.70952 -19.5332,24.97266 -2.09809,8.79828 0.19629,22.51037 11.06641,23.65234 10.01685,1.7535 21.16063,1.76393 30.75976,-2.22461 10.51217,-8.9378 7.36944,-26.1091 -0.51953,-35.77539 -5.21866,-6.47843 -13.29627,-11.02507 -21.77344,-10.625 z"
       id="path7038"
       inkscape:connector-curvature="0" />
    <path
       style="opacity:1;fill:none;fill-opacity:1;stroke:#000000;stroke-width:14;stroke-linecap:round;stroke-miterlimit:4;stroke-dasharray:none;stroke-opacity:1"
       d="m 472.02148,283.91406 c -37.47646,0.39593 -77.38303,11.18389 -103.69726,39.33203 -16.47609,21.74214 -18.45503,52.55248 -39.99414,70.94336 -17.35455,15.80804 -42.80073,16.45206 -64.75196,12.94922 -29.26847,-3.72197 -60.58095,-7.75912 -88.20312,5.57422 -34.33869,15.37839 -58.43806,55.52773 -49.03125,92.99609 8.9861,41.77779 40.69511,73.88962 75.15039,96.95704 50.41999,33.22003 113.35565,44.7063 172.73894,37.51691 55.74693,-3.14971 113.9659,-14.48336 158.48567,-50.29816 40.2282,-33.95526 59.52137,-87.6511 58.87178,-139.27427 1.15068,-34.94913 3.50137,-71.41823 -11.28389,-103.96402 -17.95863,-37.13671 -57.49289,-63.68387 -99.29883,-62.60937 -2.99423,-0.1074 -5.99025,-0.14892 -8.98633,-0.12305 z"
       id="path7014"
       inkscape:connector-curvature="0" />
    <path
       style="fill:none;fill-rule:evenodd;stroke:#d97974;stroke-width:5;stroke-linecap:butt;stroke-linejoin:miter;stroke-miterlimit:4;stroke-dasharray:none;stroke-opacity:1"
       d="m 481.84276,299.79855 c -25.25381,42.42641 -48.48731,97.98481 -21.21319,130.30969"
       id="path7036"
       inkscape:connector-curvature="0"
       sodipodi:nodetypes="cc" />
    <path
       style="fill:none;fill-rule:evenodd;stroke:#d97974;stroke-width:5;stroke-linecap:butt;stroke-linejoin:miter;stroke-miterlimit:4;stroke-dasharray:none;stroke-opacity:1"
       d="m 226.27417,601.83417 c 59.599,-84.85281 100.32896,-51.91598 54.54824,-93.94418 -61.6193,-56.56855 106.06601,-51.51779 164.65486,-43.43657"
       id="path7052"
       inkscape:connector-curvature="0"
       sodipodi:nodetypes="csc" />
    <path
       style="fill:none;fill-rule:evenodd;stroke:#d97974;stroke-width:5;stroke-linecap:butt;stroke-linejoin:miter;stroke-miterlimit:4;stroke-dasharray:none;stroke-opacity:1"
       d="m 219.2031,414.95595 c 6.06091,44.44671 45.45687,41.41625 90.91373,48.48732"
       id="path7054"
       inkscape:connector-curvature="0"
       sodipodi:nodetypes="cc" />
    <path
       sodipodi:nodetypes="cc"
       inkscape:connector-curvature="0"
       id="path7056"
       d="m 494.97475,596.78341 c 4.04061,-78.7919 29.61828,-77.1698 48.48732,-39.39595"
       style="fill:none;fill-rule:evenodd;stroke:#d97974;stroke-width:5;stroke-linecap:butt;stroke-linejoin:miter;stroke-miterlimit:4;stroke-dasharray:none;stroke-opacity:1" />
    <path
       sodipodi:nodetypes="cc"
       inkscape:connector-curvature="0"
       id="path7060"
       d="m 470.73108,476.57526 c 6.06091,44.44671 3.03046,48.48732 48.48732,55.55839"
       style="fill:none;fill-rule:evenodd;stroke:#d97974;stroke-width:5;stroke-linecap:butt;stroke-linejoin:miter;stroke-miterlimit:4;stroke-dasharray:none;stroke-opacity:1" />
    <path
       style="fill:none;fill-rule:evenodd;stroke:#d97974;stroke-width:5;stroke-linecap:butt;stroke-linejoin:miter;stroke-miterlimit:4;stroke-dasharray:none;stroke-opacity:1"
       d="m 495.9849,451.32144 c 16.16243,58.58885 31.31472,-18.18274 79.80204,6.06092"
       id="path7062"
       inkscape:connector-curvature="0"
       sodipodi:nodetypes="cc" />
  </g>
</svg>
